STARTFONT 2.1
COMMENT Made by Thomas Bagli @ PCS Computer Systeme, West Germany
FONT -Misc-Fixed-Bold-R-Normal--13-120-75-75-C-70-ISO8859-1
SIZE 13 78 78
FONTBOUNDINGBOX 7 13 0 -3
STARTPROPERTIES 19
FONTNAME_REGISTRY ""
FOUNDRY "Misc"
FAMILY_NAME "Fixed"
WEIGHT_NAME "Bold"
SLANT "R"
SETWIDTH_NAME "Normal"
ADD_STYLE_NAME ""
PIXEL_SIZE 13
POINT_SIZE 120
RESOLUTION_X 75
RESOLUTION_Y 75
SPACING "C"
AVERAGE_WIDTH 70
CHARSET_REGISTRY "ISO8859"
CHARSET_ENCODING "1"
DEFAULT_CHAR 0
FONT_DESCENT 3
FONT_ASCENT 10
COPYRIGHT "Public domain font.  Share and enjoy."
ENDPROPERTIES
CHARS 128
STARTCHAR C000
ENCODING 0
SWIDTH 666 0
DWIDTH 7 0
BBX 7 13 0 -3
BITMAP
0000
0000
0000
0000
0000
0000
0000
0000
0000
0000
0000
0000
0000
ENDCHAR
STARTCHAR C001
ENCODING 1
SWIDTH 666 0
DWIDTH 7 0
BBX 7 13 0 -3
BITMAP
0000
0000
0000
0000
0000
3000
7800
fc00
7800
3000
0000
0000
0000
ENDCHAR
STARTCHAR C002
ENCODING 2
SWIDTH 666 0
DWIDTH 7 0
BBX 7 13 0 -3
BITMAP
0000
0000
0000
0000
cc00
3000
cc00
3000
cc00
3000
cc00
0000
0000
ENDCHAR
STARTCHAR C003
ENCODING 3
SWIDTH 666 0
DWIDTH 7 0
BBX 7 13 0 -3
BITMAP
0000
0000
d800
d800
f800
d800
d800
0000
3c00
1800
1800
1800
1800
ENDCHAR
STARTCHAR C004
ENCODING 4
SWIDTH 666 0
DWIDTH 7 0
BBX 7 13 0 -3
BITMAP
0000
0000
f000
c000
f000
c000
c000
0000
3c00
3000
3c00
3000
3000
ENDCHAR
STARTCHAR C005
ENCODING 5
SWIDTH 666 0
DWIDTH 7 0
BBX 7 13 0 -3
BITMAP
0000
0000
7800
c800
c000
c800
7800
0000
7800
6c00
7800
6c00
6c00
ENDCHAR
STARTCHAR C006
ENCODING 6
SWIDTH 666 0
DWIDTH 7 0
BBX 7 13 0 -3
BITMAP
0000
0000
c000
c000
c000
c000
f800
0000
3c00
3000
3c00
3000
3000
ENDCHAR
STARTCHAR C007
ENCODING 7
SWIDTH 666 0
DWIDTH 7 0
BBX 7 13 0 -3
BITMAP
0000
0000
0000
0000
7800
cc00
cc00
7800
0000
0000
0000
0000
0000
ENDCHAR
STARTCHAR C010
ENCODING 8
SWIDTH 666 0
DWIDTH 7 0
BBX 7 13 0 -3
BITMAP
0000
0000
3000
3000
fc00
fc00
3000
3000
0000
fc00
fc00
0000
0000
ENDCHAR
STARTCHAR C011
ENCODING 9
SWIDTH 666 0
DWIDTH 7 0
BBX 7 13 0 -3
BITMAP
0000
0000
cc00
ec00
fc00
dc00
cc00
0000
6000
6000
6000
6000
7c00
ENDCHAR
STARTCHAR C012
ENCODING 10
SWIDTH 666 0
DWIDTH 7 0
BBX 7 13 0 -3
BITMAP
0000
0000
cc00
cc00
4800
7800
3000
0000
fc00
3000
3000
3000
3000
ENDCHAR
STARTCHAR C013
ENCODING 11
SWIDTH 666 0
DWIDTH 7 0
BBX 7 13 0 -3
BITMAP
3000
3000
3000
3000
3000
3000
f000
f000
0000
0000
0000
0000
0000
ENDCHAR
STARTCHAR C014
ENCODING 12
SWIDTH 666 0
DWIDTH 7 0
BBX 7 13 0 -3
BITMAP
0000
0000
0000
0000
0000
0000
f000
f000
3000
3000
3000
3000
3000
ENDCHAR
STARTCHAR C015
ENCODING 13
SWIDTH 666 0
DWIDTH 7 0
BBX 7 13 0 -3
BITMAP
0000
0000
0000
0000
0000
0000
3e00
3e00
3000
3000
3000
3000
3000
ENDCHAR
STARTCHAR C016
ENCODING 14
SWIDTH 666 0
DWIDTH 7 0
BBX 7 13 0 -3
BITMAP
3000
3000
3000
3000
3000
3000
3e00
3e00
0000
0000
0000
0000
0000
ENDCHAR
STARTCHAR C017
ENCODING 15
SWIDTH 666 0
DWIDTH 7 0
BBX 7 13 0 -3
BITMAP
3000
3000
3000
3000
3000
3000
fe00
fe00
3000
3000
3000
3000
3000
ENDCHAR
STARTCHAR C020
ENCODING 16
SWIDTH 666 0
DWIDTH 7 0
BBX 7 13 0 -3
BITMAP
0000
0000
fe00
fe00
0000
0000
0000
0000
0000
0000
0000
0000
0000
ENDCHAR
STARTCHAR C021
ENCODING 17
SWIDTH 666 0
DWIDTH 7 0
BBX 7 13 0 -3
BITMAP
0000
0000
0000
0000
fe00
fe00
0000
0000
0000
0000
0000
0000
0000
ENDCHAR
STARTCHAR C022
ENCODING 18
SWIDTH 666 0
DWIDTH 7 0
BBX 7 13 0 -3
BITMAP
0000
0000
0000
0000
0000
0000
fe00
fe00
0000
0000
0000
0000
0000
ENDCHAR
STARTCHAR C023
ENCODING 19
SWIDTH 666 0
DWIDTH 7 0
BBX 7 13 0 -3
BITMAP
0000
0000
0000
0000
0000
0000
0000
0000
fe00
fe00
0000
0000
0000
ENDCHAR
STARTCHAR C024
ENCODING 20
SWIDTH 666 0
DWIDTH 7 0
BBX 7 13 0 -3
BITMAP
0000
0000
0000
0000
0000
0000
0000
0000
0000
0000
fe00
fe00
0000
ENDCHAR
STARTCHAR C025
ENCODING 21
SWIDTH 666 0
DWIDTH 7 0
BBX 7 13 0 -3
BITMAP
3000
3000
3000
3000
3000
3000
3e00
3e00
3000
3000
3000
3000
3000
ENDCHAR
STARTCHAR C026
ENCODING 22
SWIDTH 666 0
DWIDTH 7 0
BBX 7 13 0 -3
BITMAP
3000
3000
3000
3000
3000
3000
f000
f000
3000
3000
3000
3000
3000
ENDCHAR
STARTCHAR C027
ENCODING 23
SWIDTH 666 0
DWIDTH 7 0
BBX 7 13 0 -3
BITMAP
3000
3000
3000
3000
3000
3000
fe00
fe00
0000
0000
0000
0000
0000
ENDCHAR
STARTCHAR C030
ENCODING 24
SWIDTH 666 0
DWIDTH 7 0
BBX 7 13 0 -3
BITMAP
0000
0000
0000
0000
0000
0000
fe00
fe00
3000
3000
3000
3000
3000
ENDCHAR
STARTCHAR C031
ENCODING 25
SWIDTH 666 0
DWIDTH 7 0
BBX 7 13 0 -3
BITMAP
3000
3000
3000
3000
3000
3000
3000
3000
3000
3000
3000
3000
3000
ENDCHAR
STARTCHAR C032
ENCODING 26
SWIDTH 666 0
DWIDTH 7 0
BBX 7 13 0 -3
BITMAP
0000
1800
3000
6000
c000
6000
3000
1800
0000
fc00
fc00
0000
0000
ENDCHAR
STARTCHAR C033
ENCODING 27
SWIDTH 666 0
DWIDTH 7 0
BBX 7 13 0 -3
BITMAP
0000
6000
3000
1800
0c00
1800
3000
6000
0000
fc00
fc00
0000
0000
ENDCHAR
STARTCHAR C034
ENCODING 28
SWIDTH 666 0
DWIDTH 7 0
BBX 7 13 0 -3
BITMAP
0000
0000
0000
0000
fc00
fc00
5800
5800
5800
d800
d800
0000
0000
ENDCHAR
STARTCHAR C035
ENCODING 29
SWIDTH 666 0
DWIDTH 7 0
BBX 7 13 0 -3
BITMAP
0000
0000
0c00
1800
fc00
fc00
3000
fc00
fc00
6000
c000
0000
0000
ENDCHAR
STARTCHAR C036
ENCODING 30
SWIDTH 666 0
DWIDTH 7 0
BBX 7 13 0 -3
BITMAP
0000
3800
6c00
6000
6000
f800
6000
6000
6000
f000
bc00
e000
0000
ENDCHAR
STARTCHAR C037
ENCODING 31
SWIDTH 666 0
DWIDTH 7 0
BBX 7 13 0 -3
BITMAP
0000
0000
0000
0000
0000
0000
0000
3000
3000
0000
0000
0000
0000
ENDCHAR
STARTCHAR C040
ENCODING 32
SWIDTH 666 0
DWIDTH 7 0
BBX 7 13 0 -3
BITMAP
0000
0000
0000
0000
0000
0000
0000
0000
0000
0000
0000
0000
0000
ENDCHAR
STARTCHAR !
ENCODING 33
SWIDTH 666 0
DWIDTH 7 0
BBX 7 13 0 -3
BITMAP
0000
3000
3000
3000
3000
3000
3000
3000
0000
3000
3000
0000
0000
ENDCHAR
STARTCHAR "
ENCODING 34
SWIDTH 666 0
DWIDTH 7 0
BBX 7 13 0 -3
BITMAP
0000
6c00
6c00
6c00
6c00
0000
0000
0000
0000
0000
0000
0000
0000
ENDCHAR
STARTCHAR #
ENCODING 35
SWIDTH 666 0
DWIDTH 7 0
BBX 7 13 0 -3
BITMAP
0000
0000
7800
7800
fc00
fc00
7800
fc00
fc00
7800
7800
0000
0000
ENDCHAR
STARTCHAR $
ENCODING 36
SWIDTH 666 0
DWIDTH 7 0
BBX 7 13 0 -3
BITMAP
0000
1000
7800
d400
d000
f000
7800
3c00
2c00
ac00
7800
2000
0000
ENDCHAR
STARTCHAR %
ENCODING 37
SWIDTH 666 0
DWIDTH 7 0
BBX 7 13 0 -3
BITMAP
0000
4c00
ec00
5800
1800
3000
3000
6000
6800
dc00
c800
0000
0000
ENDCHAR
STARTCHAR &
ENCODING 38
SWIDTH 666 0
DWIDTH 7 0
BBX 7 13 0 -3
BITMAP
0000
7000
d800
d800
d800
7000
7000
dc00
d800
d800
7c00
0000
0000
ENDCHAR
STARTCHAR '
ENCODING 39
SWIDTH 666 0
DWIDTH 7 0
BBX 7 13 0 -3
BITMAP
0000
3c00
1c00
1c00
1800
3000
0000
0000
0000
0000
0000
0000
0000
ENDCHAR
STARTCHAR (
ENCODING 40
SWIDTH 666 0
DWIDTH 7 0
BBX 7 13 0 -3
BITMAP
0000
0c00
1800
3000
3000
6000
6000
6000
3000
3000
1800
0c00
0000
ENDCHAR
STARTCHAR )
ENCODING 41
SWIDTH 666 0
DWIDTH 7 0
BBX 7 13 0 -3
BITMAP
0000
6000
3000
1800
1800
0c00
0c00
0c00
1800
1800
3000
6000
0000
ENDCHAR
STARTCHAR *
ENCODING 42
SWIDTH 666 0
DWIDTH 7 0
BBX 7 13 0 -3
BITMAP
0000
0000
0000
cc00
7800
7800
fc00
7800
7800
cc00
0000
0000
0000
ENDCHAR
STARTCHAR +
ENCODING 43
SWIDTH 666 0
DWIDTH 7 0
BBX 7 13 0 -3
BITMAP
0000
0000
0000
3000
3000
fc00
fc00
3000
3000
0000
0000
0000
0000
ENDCHAR
STARTCHAR ,
ENCODING 44
SWIDTH 666 0
DWIDTH 7 0
BBX 7 13 0 -3
BITMAP
0000
0000
0000
0000
0000
0000
0000
7800
3800
3800
3000
6000
0000
ENDCHAR
STARTCHAR -
ENCODING 45
SWIDTH 666 0
DWIDTH 7 0
BBX 7 13 0 -3
BITMAP
0000
0000
0000
0000
0000
fc00
fc00
0000
0000
0000
0000
0000
0000
ENDCHAR
STARTCHAR .
ENCODING 46
SWIDTH 666 0
DWIDTH 7 0
BBX 7 13 0 -3
BITMAP
0000
0000
0000
0000
0000
0000
0000
0000
3000
7800
3000
0000
0000
ENDCHAR
STARTCHAR /
ENCODING 47
SWIDTH 666 0
DWIDTH 7 0
BBX 7 13 0 -3
BITMAP
0000
0c00
0c00
1800
1800
3000
3000
6000
6000
c000
c000
0000
0000
ENDCHAR
STARTCHAR 0
ENCODING 48
SWIDTH 666 0
DWIDTH 7 0
BBX 7 13 0 -3
BITMAP
0000
3000
7800
cc00
cc00
cc00
cc00
cc00
cc00
7800
3000
0000
0000
ENDCHAR
STARTCHAR 1
ENCODING 49
SWIDTH 666 0
DWIDTH 7 0
BBX 7 13 0 -3
BITMAP
0000
3000
7000
f000
3000
3000
3000
3000
3000
3000
fc00
0000
0000
ENDCHAR
STARTCHAR 2
ENCODING 50
SWIDTH 666 0
DWIDTH 7 0
BBX 7 13 0 -3
BITMAP
0000
7800
cc00
cc00
0c00
1800
3000
6000
c000
c000
fc00
0000
0000
ENDCHAR
STARTCHAR 3
ENCODING 51
SWIDTH 666 0
DWIDTH 7 0
BBX 7 13 0 -3
BITMAP
0000
fc00
0c00
1800
3000
7800
0c00
0c00
0c00
cc00
7800
0000
0000
ENDCHAR
STARTCHAR 4
ENCODING 52
SWIDTH 666 0
DWIDTH 7 0
BBX 7 13 0 -3
BITMAP
0000
1800
3800
7800
7800
d800
d800
fc00
1800
1800
1800
0000
0000
ENDCHAR
STARTCHAR 5
ENCODING 53
SWIDTH 666 0
DWIDTH 7 0
BBX 7 13 0 -3
BITMAP
0000
fc00
c000
c000
f800
ec00
0c00
0c00
0c00
cc00
7800
0000
0000
ENDCHAR
STARTCHAR 6
ENCODING 54
SWIDTH 666 0
DWIDTH 7 0
BBX 7 13 0 -3
BITMAP
0000
3800
6000
c000
c000
f800
ec00
cc00
cc00
cc00
7800
0000
0000
ENDCHAR
STARTCHAR 7
ENCODING 55
SWIDTH 666 0
DWIDTH 7 0
BBX 7 13 0 -3
BITMAP
0000
fc00
0c00
0c00
1800
3000
3000
6000
6000
6000
6000
0000
0000
ENDCHAR
STARTCHAR 8
ENCODING 56
SWIDTH 666 0
DWIDTH 7 0
BBX 7 13 0 -3
BITMAP
0000
7800
cc00
cc00
cc00
7800
cc00
cc00
cc00
cc00
7800
0000
0000
ENDCHAR
STARTCHAR 9
ENCODING 57
SWIDTH 666 0
DWIDTH 7 0
BBX 7 13 0 -3
BITMAP
0000
7800
cc00
cc00
cc00
dc00
7c00
0c00
0c00
1800
7000
0000
0000
ENDCHAR
STARTCHAR :
ENCODING 58
SWIDTH 666 0
DWIDTH 7 0
BBX 7 13 0 -3
BITMAP
0000
0000
0000
3000
7800
3000
0000
0000
3000
7800
3000
0000
0000
ENDCHAR
STARTCHAR ;
ENCODING 59
SWIDTH 666 0
DWIDTH 7 0
BBX 7 13 0 -3
BITMAP
0000
0000
0000
3000
7800
3000
0000
7800
3800
3800
3000
6000
0000
ENDCHAR
STARTCHAR <
ENCODING 60
SWIDTH 666 0
DWIDTH 7 0
BBX 7 13 0 -3
BITMAP
0000
0000
0c00
1800
3000
6000
c000
6000
3000
1800
0c00
0000
0000
ENDCHAR
STARTCHAR =
ENCODING 61
SWIDTH 666 0
DWIDTH 7 0
BBX 7 13 0 -3
BITMAP
0000
0000
0000
0000
fc00
fc00
0000
0000
fc00
fc00
0000
0000
0000
ENDCHAR
STARTCHAR >
ENCODING 62
SWIDTH 666 0
DWIDTH 7 0
BBX 7 13 0 -3
BITMAP
0000
0000
c000
6000
3000
1800
0c00
1800
3000
6000
c000
0000
0000
ENDCHAR
STARTCHAR ?
ENCODING 63
SWIDTH 666 0
DWIDTH 7 0
BBX 7 13 0 -3
BITMAP
0000
7800
cc00
cc00
0c00
1800
3000
3000
0000
3000
3000
0000
0000
ENDCHAR
STARTCHAR @
ENCODING 64
SWIDTH 666 0
DWIDTH 7 0
BBX 7 13 0 -3
BITMAP
0000
0000
7800
fc00
dc00
dc00
d400
d400
dc00
e000
7c00
0000
0000
ENDCHAR
STARTCHAR A
ENCODING 65
SWIDTH 666 0
DWIDTH 7 0
BBX 7 13 0 -3
BITMAP
0000
3000
7800
cc00
cc00
cc00
fc00
cc00
cc00
cc00
cc00
0000
0000
ENDCHAR
STARTCHAR B
ENCODING 66
SWIDTH 666 0
DWIDTH 7 0
BBX 7 13 0 -3
BITMAP
0000
f800
6c00
6c00
6c00
7800
6c00
6c00
6c00
6c00
f800
0000
0000
ENDCHAR
STARTCHAR C
ENCODING 67
SWIDTH 666 0
DWIDTH 7 0
BBX 7 13 0 -3
BITMAP
0000
7800
cc00
c000
c000
c000
c000
c000
c000
cc00
7800
0000
0000
ENDCHAR
STARTCHAR D
ENCODING 68
SWIDTH 666 0
DWIDTH 7 0
BBX 7 13 0 -3
BITMAP
0000
f800
6c00
6c00
6c00
6c00
6c00
6c00
6c00
6c00
f800
0000
0000
ENDCHAR
STARTCHAR E
ENCODING 69
SWIDTH 666 0
DWIDTH 7 0
BBX 7 13 0 -3
BITMAP
0000
fc00
c400
c000
c000
f800
c000
c000
c000
c400
fc00
0000
0000
ENDCHAR
STARTCHAR F
ENCODING 70
SWIDTH 666 0
DWIDTH 7 0
BBX 7 13 0 -3
BITMAP
0000
fc00
c400
c000
c000
f800
c000
c000
c000
c000
c000
0000
0000
ENDCHAR
STARTCHAR G
ENCODING 71
SWIDTH 666 0
DWIDTH 7 0
BBX 7 13 0 -3
BITMAP
0000
7800
cc00
c000
c000
c000
c000
dc00
cc00
cc00
7800
0000
0000
ENDCHAR
STARTCHAR H
ENCODING 72
SWIDTH 666 0
DWIDTH 7 0
BBX 7 13 0 -3
BITMAP
0000
cc00
cc00
cc00
cc00
fc00
cc00
cc00
cc00
cc00
cc00
0000
0000
ENDCHAR
STARTCHAR I
ENCODING 73
SWIDTH 666 0
DWIDTH 7 0
BBX 7 13 0 -3
BITMAP
0000
7800
3000
3000
3000
3000
3000
3000
3000
3000
7800
0000
0000
ENDCHAR
STARTCHAR J
ENCODING 74
SWIDTH 666 0
DWIDTH 7 0
BBX 7 13 0 -3
BITMAP
0000
1c00
0c00
0c00
0c00
0c00
0c00
0c00
0c00
cc00
7800
0000
0000
ENDCHAR
STARTCHAR K
ENCODING 75
SWIDTH 666 0
DWIDTH 7 0
BBX 7 13 0 -3
BITMAP
0000
cc00
cc00
d800
f000
e000
e000
f000
d800
cc00
cc00
0000
0000
ENDCHAR
STARTCHAR L
ENCODING 76
SWIDTH 666 0
DWIDTH 7 0
BBX 7 13 0 -3
BITMAP
0000
c000
c000
c000
c000
c000
c000
c000
c000
c400
fc00
0000
0000
ENDCHAR
STARTCHAR M
ENCODING 77
SWIDTH 666 0
DWIDTH 7 0
BBX 7 13 0 -3
BITMAP
0000
8400
cc00
fc00
fc00
fc00
cc00
cc00
cc00
cc00
cc00
0000
0000
ENDCHAR
STARTCHAR N
ENCODING 78
SWIDTH 666 0
DWIDTH 7 0
BBX 7 13 0 -3
BITMAP
0000
cc00
cc00
ec00
ec00
fc00
fc00
dc00
dc00
cc00
cc00
0000
0000
ENDCHAR
STARTCHAR O
ENCODING 79
SWIDTH 666 0
DWIDTH 7 0
BBX 7 13 0 -3
BITMAP
0000
7800
cc00
cc00
cc00
cc00
cc00
cc00
cc00
cc00
7800
0000
0000
ENDCHAR
STARTCHAR P
ENCODING 80
SWIDTH 666 0
DWIDTH 7 0
BBX 7 13 0 -3
BITMAP
0000
f800
cc00
cc00
cc00
cc00
f800
c000
c000
c000
c000
0000
0000
ENDCHAR
STARTCHAR Q
ENCODING 81
SWIDTH 666 0
DWIDTH 7 0
BBX 7 13 0 -3
BITMAP
0000
7800
cc00
cc00
cc00
cc00
cc00
cc00
cc00
dc00
7800
0c00
0000
ENDCHAR
STARTCHAR R
ENCODING 82
SWIDTH 666 0
DWIDTH 7 0
BBX 7 13 0 -3
BITMAP
0000
f800
cc00
cc00
cc00
f800
f000
d800
d800
cc00
cc00
0000
0000
ENDCHAR
STARTCHAR S
ENCODING 83
SWIDTH 666 0
DWIDTH 7 0
BBX 7 13 0 -3
BITMAP
0000
7800
cc00
c000
c000
7800
0c00
0c00
0c00
cc00
7800
0000
0000
ENDCHAR
STARTCHAR T
ENCODING 84
SWIDTH 666 0
DWIDTH 7 0
BBX 7 13 0 -3
BITMAP
0000
fc00
3000
3000
3000
3000
3000
3000
3000
3000
3000
0000
0000
ENDCHAR
STARTCHAR U
ENCODING 85
SWIDTH 666 0
DWIDTH 7 0
BBX 7 13 0 -3
BITMAP
0000
cc00
cc00
cc00
cc00
cc00
cc00
cc00
cc00
cc00
7800
0000
0000
ENDCHAR
STARTCHAR V
ENCODING 86
SWIDTH 666 0
DWIDTH 7 0
BBX 7 13 0 -3
BITMAP
0000
cc00
cc00
cc00
cc00
cc00
4800
7800
7800
3000
3000
0000
0000
ENDCHAR
STARTCHAR W
ENCODING 87
SWIDTH 666 0
DWIDTH 7 0
BBX 7 13 0 -3
BITMAP
0000
cc00
cc00
cc00
cc00
cc00
fc00
fc00
fc00
fc00
4800
0000
0000
ENDCHAR
STARTCHAR X
ENCODING 88
SWIDTH 666 0
DWIDTH 7 0
BBX 7 13 0 -3
BITMAP
0000
cc00
cc00
7800
7800
3000
7800
7800
4800
cc00
cc00
0000
0000
ENDCHAR
STARTCHAR Y
ENCODING 89
SWIDTH 666 0
DWIDTH 7 0
BBX 7 13 0 -3
BITMAP
0000
cc00
cc00
cc00
7800
7800
3000
3000
3000
3000
3000
0000
0000
ENDCHAR
STARTCHAR Z
ENCODING 90
SWIDTH 666 0
DWIDTH 7 0
BBX 7 13 0 -3
BITMAP
0000
fc00
0c00
1800
1800
3000
6000
6000
c000
c000
fc00
0000
0000
ENDCHAR
STARTCHAR [
ENCODING 91
SWIDTH 666 0
DWIDTH 7 0
BBX 7 13 0 -3
BITMAP
0000
7c00
6000
6000
6000
6000
6000
6000
6000
6000
6000
7c00
0000
ENDCHAR
STARTCHAR \
ENCODING 92
SWIDTH 666 0
DWIDTH 7 0
BBX 7 13 0 -3
BITMAP
0000
c000
c000
6000
6000
3000
3000
1800
1800
0c00
0c00
0000
0000
ENDCHAR
STARTCHAR ]
ENCODING 93
SWIDTH 666 0
DWIDTH 7 0
BBX 7 13 0 -3
BITMAP
0000
7c00
0c00
0c00
0c00
0c00
0c00
0c00
0c00
0c00
0c00
7c00
0000
ENDCHAR
STARTCHAR ^
ENCODING 94
SWIDTH 666 0
DWIDTH 7 0
BBX 7 13 0 -3
BITMAP
0000
3000
7800
cc00
8400
0000
0000
0000
0000
0000
0000
0000
0000
ENDCHAR
STARTCHAR _
ENCODING 95
SWIDTH 666 0
DWIDTH 7 0
BBX 7 13 0 -3
BITMAP
0000
0000
0000
0000
0000
0000
0000
0000
0000
0000
0000
fc00
0000
ENDCHAR
STARTCHAR `
ENCODING 96
SWIDTH 666 0
DWIDTH 7 0
BBX 7 13 0 -3
BITMAP
0000
7800
7000
7000
3000
1800
0000
0000
0000
0000
0000
0000
0000
ENDCHAR
STARTCHAR a
ENCODING 97
SWIDTH 666 0
DWIDTH 7 0
BBX 7 13 0 -3
BITMAP
0000
0000
0000
0000
7800
0c00
7c00
cc00
cc00
dc00
7c00
0000
0000
ENDCHAR
STARTCHAR b
ENCODING 98
SWIDTH 666 0
DWIDTH 7 0
BBX 7 13 0 -3
BITMAP
0000
c000
c000
c000
f800
ec00
cc00
cc00
cc00
ec00
f800
0000
0000
ENDCHAR
STARTCHAR c
ENCODING 99
SWIDTH 666 0
DWIDTH 7 0
BBX 7 13 0 -3
BITMAP
0000
0000
0000
0000
7800
cc00
c000
c000
c000
cc00
7800
0000
0000
ENDCHAR
STARTCHAR d
ENCODING 100
SWIDTH 666 0
DWIDTH 7 0
BBX 7 13 0 -3
BITMAP
0000
0c00
0c00
0c00
7c00
dc00
cc00
cc00
cc00
dc00
7c00
0000
0000
ENDCHAR
STARTCHAR e
ENCODING 101
SWIDTH 666 0
DWIDTH 7 0
BBX 7 13 0 -3
BITMAP
0000
0000
0000
0000
7800
cc00
cc00
fc00
c000
cc00
7800
0000
0000
ENDCHAR
STARTCHAR f
ENCODING 102
SWIDTH 666 0
DWIDTH 7 0
BBX 7 13 0 -3
BITMAP
0000
3800
6c00
6000
6000
6000
f800
6000
6000
6000
6000
0000
0000
ENDCHAR
STARTCHAR g
ENCODING 103
SWIDTH 666 0
DWIDTH 7 0
BBX 7 13 0 -3
BITMAP
0000
0000
0000
0000
7c00
d800
d800
d800
7000
e000
7800
cc00
7800
ENDCHAR
STARTCHAR h
ENCODING 104
SWIDTH 666 0
DWIDTH 7 0
BBX 7 13 0 -3
BITMAP
0000
c000
c000
c000
f800
ec00
cc00
cc00
cc00
cc00
cc00
0000
0000
ENDCHAR
STARTCHAR i
ENCODING 105
SWIDTH 666 0
DWIDTH 7 0
BBX 7 13 0 -3
BITMAP
0000
0000
3000
3000
0000
7000
3000
3000
3000
3000
7800
0000
0000
ENDCHAR
STARTCHAR j
ENCODING 106
SWIDTH 666 0
DWIDTH 7 0
BBX 7 13 0 -3
BITMAP
0000
0000
0c00
0c00
0000
1c00
0c00
0c00
0c00
0c00
cc00
cc00
7800
ENDCHAR
STARTCHAR k
ENCODING 107
SWIDTH 666 0
DWIDTH 7 0
BBX 7 13 0 -3
BITMAP
0000
c000
c000
c000
cc00
d800
f000
f000
d800
cc00
cc00
0000
0000
ENDCHAR
STARTCHAR l
ENCODING 108
SWIDTH 666 0
DWIDTH 7 0
BBX 7 13 0 -3
BITMAP
0000
7000
3000
3000
3000
3000
3000
3000
3000
3000
7800
0000
0000
ENDCHAR
STARTCHAR m
ENCODING 109
SWIDTH 666 0
DWIDTH 7 0
BBX 7 13 0 -3
BITMAP
0000
0000
0000
0000
d800
fc00
fc00
fc00
cc00
cc00
cc00
0000
0000
ENDCHAR
STARTCHAR n
ENCODING 110
SWIDTH 666 0
DWIDTH 7 0
BBX 7 13 0 -3
BITMAP
0000
0000
0000
0000
f800
ec00
cc00
cc00
cc00
cc00
cc00
0000
0000
ENDCHAR
STARTCHAR o
ENCODING 111
SWIDTH 666 0
DWIDTH 7 0
BBX 7 13 0 -3
BITMAP
0000
0000
0000
0000
7800
cc00
cc00
cc00
cc00
cc00
7800
0000
0000
ENDCHAR
STARTCHAR p
ENCODING 112
SWIDTH 666 0
DWIDTH 7 0
BBX 7 13 0 -3
BITMAP
0000
0000
0000
0000
f800
ec00
cc00
cc00
cc00
ec00
f800
c000
c000
ENDCHAR
STARTCHAR q
ENCODING 113
SWIDTH 666 0
DWIDTH 7 0
BBX 7 13 0 -3
BITMAP
0000
0000
0000
0000
7c00
dc00
cc00
cc00
cc00
dc00
7c00
0c00
0c00
ENDCHAR
STARTCHAR r
ENCODING 114
SWIDTH 666 0
DWIDTH 7 0
BBX 7 13 0 -3
BITMAP
0000
0000
0000
0000
f800
ec00
c000
c000
c000
c000
c000
0000
0000
ENDCHAR
STARTCHAR s
ENCODING 115
SWIDTH 666 0
DWIDTH 7 0
BBX 7 13 0 -3
BITMAP
0000
0000
0000
0000
7800
cc00
7000
3800
0c00
cc00
7800
0000
0000
ENDCHAR
STARTCHAR t
ENCODING 116
SWIDTH 666 0
DWIDTH 7 0
BBX 7 13 0 -3
BITMAP
0000
6000
6000
6000
6000
f800
6000
6000
6000
6c00
3800
0000
0000
ENDCHAR
STARTCHAR u
ENCODING 117
SWIDTH 666 0
DWIDTH 7 0
BBX 7 13 0 -3
BITMAP
0000
0000
0000
0000
cc00
cc00
cc00
cc00
cc00
dc00
7c00
0000
0000
ENDCHAR
STARTCHAR v
ENCODING 118
SWIDTH 666 0
DWIDTH 7 0
BBX 7 13 0 -3
BITMAP
0000
0000
0000
0000
cc00
cc00
cc00
cc00
7800
7800
3000
0000
0000
ENDCHAR
STARTCHAR w
ENCODING 119
SWIDTH 666 0
DWIDTH 7 0
BBX 7 13 0 -3
BITMAP
0000
0000
0000
0000
cc00
cc00
cc00
cc00
fc00
fc00
4800
0000
0000
ENDCHAR
STARTCHAR x
ENCODING 120
SWIDTH 666 0
DWIDTH 7 0
BBX 7 13 0 -3
BITMAP
0000
0000
0000
0000
cc00
cc00
7800
3000
7800
cc00
cc00
0000
0000
ENDCHAR
STARTCHAR y
ENCODING 121
SWIDTH 666 0
DWIDTH 7 0
BBX 7 13 0 -3
BITMAP
0000
0000
0000
0000
cc00
cc00
cc00
cc00
dc00
7c00
0c00
cc00
7800
ENDCHAR
STARTCHAR z
ENCODING 122
SWIDTH 666 0
DWIDTH 7 0
BBX 7 13 0 -3
BITMAP
0000
0000
0000
0000
fc00
0c00
1800
3000
6000
c000
fc00
0000
0000
ENDCHAR
STARTCHAR {
ENCODING 123
SWIDTH 666 0
DWIDTH 7 0
BBX 7 13 0 -3
BITMAP
0000
1c00
3000
3000
3000
1800
7000
1800
3000
3000
3000
1c00
0000
ENDCHAR
STARTCHAR |
ENCODING 124
SWIDTH 666 0
DWIDTH 7 0
BBX 7 13 0 -3
BITMAP
0000
3000
3000
3000
3000
3000
3000
3000
3000
3000
3000
0000
0000
ENDCHAR
STARTCHAR }
ENCODING 125
SWIDTH 666 0
DWIDTH 7 0
BBX 7 13 0 -3
BITMAP
0000
7000
1800
1800
1800
3000
1c00
3000
1800
1800
1800
7000
0000
ENDCHAR
STARTCHAR ~
ENCODING 126
SWIDTH 666 0
DWIDTH 7 0
BBX 7 13 0 -3
BITMAP
0000
6400
fc00
9800
0000
0000
0000
0000
0000
0000
0000
0000
0000
ENDCHAR
STARTCHAR C177
ENCODING 127
SWIDTH 666 0
DWIDTH 7 0
BBX 7 13 0 -3
BITMAP
0000
0000
0000
0000
0000
0000
0000
0000
0000
0000
0000
0000
0000
ENDCHAR
ENDFONT
